<mxfile host="www.draw.io" modified="2019-11-19T16:08:22.896Z" agent="Mozilla/5.0 (Macintosh; Intel Mac OS X 10_15_1) AppleWebKit/537.36 (KHTML, like Gecko) Chrome/78.0.3904.97 Safari/537.36" etag="xhIcfuXwo5cS_wnEPmGC" version="12.2.6" type="github" pages="1">
  <diagram id="q7AF34wDNDNPmXWDPViA" name="第 1 页">
    <mxGraphModel dx="754" dy="427" grid="0" gridSize="10" guides="1" tooltips="1" connect="1" arrows="1" fold="1" page="1" pageScale="1" pageWidth="2339" pageHeight="3300" math="0" shadow="0">
      <root>
        <mxCell id="0"/>
        <mxCell id="1" parent="0"/>
        <mxCell id="6vEbpjVL_Du5tUhJGIu1-2" value="1.cashierCreateOrder 生成支付订单号orderID&lt;br&gt;2.cashierGetPayInfo 获取支付订单详细信息&lt;br&gt;3.cashierCommitPayment 提交订单支付接口&lt;br&gt;(第一次请求，返回451，调用鉴权，第二次提交业务数据)&lt;br&gt;4.getPayResult 显示结果信息" style="html=1;fillColor=#dae8fc;strokeColor=#6c8ebf;" parent="1" vertex="1">
          <mxGeometry x="265" y="470" width="320" height="70" as="geometry"/>
        </mxCell>
        <mxCell id="6vEbpjVL_Du5tUhJGIu1-5" value="销帐，展期系统调用payui,根据不同的鉴权类型&lt;br&gt;businessType，实例化不同的Server,完成不同的业务流程" style="html=1;fillColor=#dae8fc;strokeColor=#6c8ebf;" parent="1" vertex="1">
          <mxGeometry x="265" y="370" width="310" height="45" as="geometry"/>
        </mxCell>
        <mxCell id="6vEbpjVL_Du5tUhJGIu1-6" value="1.鉴权(短信，密码，扫脸)&lt;br&gt;短信：端去请求auc，auc根据不同业务类型，请求不同的网关接口&lt;br&gt;密码：端去请求auc，auc请求支付网关，校验密码&lt;br&gt;2.根据eventID,获取用户已完成的鉴权项" style="rounded=1;whiteSpace=wrap;html=1;fillColor=#fff2cc;strokeColor=#d6b656;gradientColor=#ffd966;" parent="1" vertex="1">
          <mxGeometry x="270" y="290" width="360" height="60" as="geometry"/>
        </mxCell>
        <mxCell id="6vEbpjVL_Du5tUhJGIu1-8" value="APP" style="rounded=1;whiteSpace=wrap;html=1;" parent="1" vertex="1">
          <mxGeometry x="150" y="300" width="90" height="40" as="geometry"/>
        </mxCell>
        <mxCell id="6vEbpjVL_Du5tUhJGIu1-9" value="" style="endArrow=classic;html=1;" parent="1" edge="1">
          <mxGeometry width="50" height="50" relative="1" as="geometry">
            <mxPoint x="197" y="300" as="sourcePoint"/>
            <mxPoint x="197" y="230" as="targetPoint"/>
          </mxGeometry>
        </mxCell>
        <mxCell id="6vEbpjVL_Du5tUhJGIu1-12" value="发起欠条" style="rhombus;whiteSpace=wrap;html=1;" parent="1" vertex="1">
          <mxGeometry x="157" y="180" width="80" height="50" as="geometry"/>
        </mxCell>
        <mxCell id="6vEbpjVL_Du5tUhJGIu1-14" value="" style="endArrow=none;html=1;" parent="1" edge="1">
          <mxGeometry width="50" height="50" relative="1" as="geometry">
            <mxPoint x="197" y="180" as="sourcePoint"/>
            <mxPoint x="197" y="140" as="targetPoint"/>
          </mxGeometry>
        </mxCell>
        <mxCell id="6vEbpjVL_Du5tUhJGIu1-15" value="" style="endArrow=classic;html=1;entryX=0;entryY=0.5;entryDx=0;entryDy=0;entryPerimeter=0;" parent="1" edge="1">
          <mxGeometry width="50" height="50" relative="1" as="geometry">
            <mxPoint x="197" y="140" as="sourcePoint"/>
            <mxPoint x="327" y="140" as="targetPoint"/>
            <Array as="points"/>
          </mxGeometry>
        </mxCell>
        <mxCell id="6vEbpjVL_Du5tUhJGIu1-16" value="iouui" style="rounded=0;whiteSpace=wrap;html=1;" parent="1" vertex="1">
          <mxGeometry x="330" y="123" width="90" height="40" as="geometry"/>
        </mxCell>
        <mxCell id="6vEbpjVL_Du5tUhJGIu1-23" value="鉴权系统" style="rounded=0;whiteSpace=wrap;html=1;" parent="1" vertex="1">
          <mxGeometry x="330" y="222" width="91" height="48" as="geometry"/>
        </mxCell>
        <mxCell id="6vEbpjVL_Du5tUhJGIu1-24" value="" style="endArrow=classic;html=1;entryX=0;entryY=0.5;entryDx=0;entryDy=0;entryPerimeter=0;" parent="1" edge="1">
          <mxGeometry width="50" height="50" relative="1" as="geometry">
            <mxPoint x="420" y="245.5" as="sourcePoint"/>
            <mxPoint x="514" y="245.5" as="targetPoint"/>
            <Array as="points"/>
          </mxGeometry>
        </mxCell>
        <mxCell id="6vEbpjVL_Du5tUhJGIu1-25" value="风控系统" style="rounded=0;whiteSpace=wrap;html=1;" parent="1" vertex="1">
          <mxGeometry x="515" y="221" width="90" height="46" as="geometry"/>
        </mxCell>
        <mxCell id="6vEbpjVL_Du5tUhJGIu1-26" value="获取eventID" style="text;html=1;strokeColor=none;fillColor=none;align=center;verticalAlign=middle;whiteSpace=wrap;rounded=0;" parent="1" vertex="1">
          <mxGeometry x="433" y="222" width="70" height="20" as="geometry"/>
        </mxCell>
        <mxCell id="6vEbpjVL_Du5tUhJGIu1-28" value="欠条server" style="rounded=0;whiteSpace=wrap;html=1;" parent="1" vertex="1">
          <mxGeometry x="504" y="123" width="88" height="38" as="geometry"/>
        </mxCell>
        <mxCell id="6vEbpjVL_Du5tUhJGIu1-29" value="payui" style="rounded=0;whiteSpace=wrap;html=1;" parent="1" vertex="1">
          <mxGeometry x="330" y="421" width="90" height="40" as="geometry"/>
        </mxCell>
        <mxCell id="6vEbpjVL_Du5tUhJGIu1-30" value="" style="endArrow=classic;html=1;" parent="1" edge="1">
          <mxGeometry width="50" height="50" relative="1" as="geometry">
            <mxPoint x="375" y="420" as="sourcePoint"/>
            <mxPoint x="374.5" y="270" as="targetPoint"/>
          </mxGeometry>
        </mxCell>
        <mxCell id="6vEbpjVL_Du5tUhJGIu1-32" value="销帐系统" style="rounded=0;whiteSpace=wrap;html=1;" parent="1" vertex="1">
          <mxGeometry x="708" y="399" width="92" height="42" as="geometry"/>
        </mxCell>
        <mxCell id="6vEbpjVL_Du5tUhJGIu1-33" value="展期系统" style="rounded=0;whiteSpace=wrap;html=1;" parent="1" vertex="1">
          <mxGeometry x="708" y="207" width="92" height="39" as="geometry"/>
        </mxCell>
        <mxCell id="6vEbpjVL_Du5tUhJGIu1-34" value="1.债务系统获取债务，产品系统获取产品信息&lt;br&gt;&amp;nbsp;2.请求销账和打赏系统，判断是否存在销账和打赏&lt;br&gt;&amp;nbsp; &amp;nbsp;3.条件允许，创建展期，生成协议&lt;br&gt;4.给债务人通过短信，小秘书等方式推送消息" style="rounded=0;whiteSpace=wrap;html=1;gradientColor=#ffd966;fillColor=#fff2cc;strokeColor=#d6b656;" parent="1" vertex="1">
          <mxGeometry x="720" y="128" width="290" height="70" as="geometry"/>
        </mxCell>
        <mxCell id="6vEbpjVL_Du5tUhJGIu1-35" value="" style="endArrow=classic;html=1;exitX=0.5;exitY=1;exitDx=0;exitDy=0;" parent="1" edge="1">
          <mxGeometry width="50" height="50" relative="1" as="geometry">
            <mxPoint x="196.5" y="340" as="sourcePoint"/>
            <mxPoint x="196.5" y="420" as="targetPoint"/>
          </mxGeometry>
        </mxCell>
        <mxCell id="6vEbpjVL_Du5tUhJGIu1-36" value="确认欠条" style="rhombus;whiteSpace=wrap;html=1;" parent="1" vertex="1">
          <mxGeometry x="156" y="420" width="80" height="50" as="geometry"/>
        </mxCell>
        <mxCell id="6vEbpjVL_Du5tUhJGIu1-37" value="" style="endArrow=classic;html=1;" parent="1" edge="1">
          <mxGeometry width="50" height="50" relative="1" as="geometry">
            <mxPoint x="421" y="140" as="sourcePoint"/>
            <mxPoint x="503" y="140" as="targetPoint"/>
            <Array as="points"/>
          </mxGeometry>
        </mxCell>
        <mxCell id="6vEbpjVL_Du5tUhJGIu1-40" value="" style="endArrow=classic;html=1;entryX=0;entryY=0.5;entryDx=0;entryDy=0;entryPerimeter=0;" parent="1" edge="1">
          <mxGeometry width="50" height="50" relative="1" as="geometry">
            <mxPoint x="674" y="229.5" as="sourcePoint"/>
            <mxPoint x="708" y="229.5" as="targetPoint"/>
            <Array as="points"/>
          </mxGeometry>
        </mxCell>
        <mxCell id="6vEbpjVL_Du5tUhJGIu1-41" value="" style="endArrow=classic;html=1;entryX=0;entryY=0.5;entryDx=0;entryDy=0;entryPerimeter=0;" parent="1" edge="1">
          <mxGeometry width="50" height="50" relative="1" as="geometry">
            <mxPoint x="674" y="419.5" as="sourcePoint"/>
            <mxPoint x="708" y="419.5" as="targetPoint"/>
            <Array as="points">
              <mxPoint x="694" y="419.5"/>
            </Array>
          </mxGeometry>
        </mxCell>
        <mxCell id="6vEbpjVL_Du5tUhJGIu1-42" value="" style="endArrow=none;html=1;" parent="1" edge="1">
          <mxGeometry width="50" height="50" relative="1" as="geometry">
            <mxPoint x="673" y="570" as="sourcePoint"/>
            <mxPoint x="673" y="184" as="targetPoint"/>
            <Array as="points">
              <mxPoint x="673" y="221"/>
            </Array>
          </mxGeometry>
        </mxCell>
        <mxCell id="6vEbpjVL_Du5tUhJGIu1-43" value="&lt;span style=&quot;color: rgba(0 , 0 , 0 , 0) ; font-family: monospace ; font-size: 0px ; background-color: rgb(248 , 249 , 250)&quot;&gt;%3CmxGraphModel%3E%3Croot%3E%3CmxCell%20id%3D%220%22%2F%3E%3CmxCell%20id%3D%221%22%20parent%3D%220%22%2F%3E%3CmxCell%20id%3D%222%22%20value%3D%22%22%20style%3D%22endArrow%3Dnone%3Bhtml%3D1%3B%22%20edge%3D%221%22%20parent%3D%221%22%3E%3CmxGeometry%20width%3D%2250%22%20height%3D%2250%22%20relative%3D%221%22%20as%3D%22geometry%22%3E%3CmxPoint%20x%3D%22610%22%20y%3D%22137%22%20as%3D%22sourcePoint%22%2F%3E%3CmxPoint%20x%3D%22673%22%20y%3D%22137%22%20as%3D%22targetPoint%22%2F%3E%3C%2FmxGeometry%3E%3C%2FmxCell%3E%3C%2Froot%3E%3C%2FmxGraphModel%3E&lt;/span&gt;" style="endArrow=none;html=1;" parent="1" edge="1">
          <mxGeometry width="50" height="50" relative="1" as="geometry">
            <mxPoint x="593" y="137" as="sourcePoint"/>
            <mxPoint x="673" y="137" as="targetPoint"/>
          </mxGeometry>
        </mxCell>
        <mxCell id="6vEbpjVL_Du5tUhJGIu1-44" value="" style="endArrow=none;html=1;" parent="1" edge="1">
          <mxGeometry width="50" height="50" relative="1" as="geometry">
            <mxPoint x="673" y="190" as="sourcePoint"/>
            <mxPoint x="673" y="136" as="targetPoint"/>
            <Array as="points">
              <mxPoint x="673" y="173"/>
            </Array>
          </mxGeometry>
        </mxCell>
        <mxCell id="6vEbpjVL_Du5tUhJGIu1-45" value="iouui" style="rounded=0;whiteSpace=wrap;html=1;" parent="1" vertex="1">
          <mxGeometry x="303" y="551" width="90" height="40" as="geometry"/>
        </mxCell>
        <mxCell id="6vEbpjVL_Du5tUhJGIu1-46" value="" style="endArrow=none;html=1;" parent="1" edge="1">
          <mxGeometry width="50" height="50" relative="1" as="geometry">
            <mxPoint x="197" y="573" as="sourcePoint"/>
            <mxPoint x="196.5" y="470" as="targetPoint"/>
          </mxGeometry>
        </mxCell>
        <mxCell id="6vEbpjVL_Du5tUhJGIu1-47" value="" style="endArrow=classic;html=1;" parent="1" edge="1">
          <mxGeometry width="50" height="50" relative="1" as="geometry">
            <mxPoint x="196" y="573" as="sourcePoint"/>
            <mxPoint x="300" y="573" as="targetPoint"/>
            <Array as="points"/>
          </mxGeometry>
        </mxCell>
        <mxCell id="6vEbpjVL_Du5tUhJGIu1-48" value="" style="endArrow=classic;html=1;entryX=0;entryY=0.5;entryDx=0;entryDy=0;" parent="1" target="6vEbpjVL_Du5tUhJGIu1-49" edge="1">
          <mxGeometry width="50" height="50" relative="1" as="geometry">
            <mxPoint x="394" y="571" as="sourcePoint"/>
            <mxPoint x="440" y="571" as="targetPoint"/>
            <Array as="points"/>
          </mxGeometry>
        </mxCell>
        <mxCell id="6vEbpjVL_Du5tUhJGIu1-49" value="欠条server" style="rounded=0;whiteSpace=wrap;html=1;" parent="1" vertex="1">
          <mxGeometry x="480" y="551" width="95" height="39" as="geometry"/>
        </mxCell>
        <mxCell id="6vEbpjVL_Du5tUhJGIu1-50" value="" style="endArrow=none;html=1;" parent="1" edge="1">
          <mxGeometry width="50" height="50" relative="1" as="geometry">
            <mxPoint x="577" y="571" as="sourcePoint"/>
            <mxPoint x="672" y="571" as="targetPoint"/>
          </mxGeometry>
        </mxCell>
        <mxCell id="6vEbpjVL_Du5tUhJGIu1-51" value="" style="endArrow=classic;html=1;exitX=0.5;exitY=1;exitDx=0;exitDy=0;" parent="1" edge="1">
          <mxGeometry width="50" height="50" relative="1" as="geometry">
            <mxPoint x="376" y="163" as="sourcePoint"/>
            <mxPoint x="376" y="220" as="targetPoint"/>
          </mxGeometry>
        </mxCell>
        <mxCell id="6vEbpjVL_Du5tUhJGIu1-56" value="还款系统" style="rounded=0;whiteSpace=wrap;html=1;" parent="1" vertex="1">
          <mxGeometry x="708" y="303" width="92" height="39" as="geometry"/>
        </mxCell>
        <mxCell id="6vEbpjVL_Du5tUhJGIu1-57" value="" style="endArrow=classic;html=1;entryX=0;entryY=0.5;entryDx=0;entryDy=0;entryPerimeter=0;" parent="1" edge="1">
          <mxGeometry width="50" height="50" relative="1" as="geometry">
            <mxPoint x="674" y="322.5" as="sourcePoint"/>
            <mxPoint x="708" y="322.5" as="targetPoint"/>
            <Array as="points"/>
          </mxGeometry>
        </mxCell>
        <mxCell id="6vEbpjVL_Du5tUhJGIu1-58" value="订单系统" style="rounded=0;whiteSpace=wrap;html=1;" parent="1" vertex="1">
          <mxGeometry x="880" y="300" width="92" height="39" as="geometry"/>
        </mxCell>
        <mxCell id="6vEbpjVL_Du5tUhJGIu1-60" value="" style="endArrow=classic;html=1;entryX=0;entryY=0.5;entryDx=0;entryDy=0;" parent="1" target="6vEbpjVL_Du5tUhJGIu1-58" edge="1">
          <mxGeometry width="50" height="50" relative="1" as="geometry">
            <mxPoint x="800" y="320" as="sourcePoint"/>
            <mxPoint x="718" y="239.5" as="targetPoint"/>
            <Array as="points"/>
          </mxGeometry>
        </mxCell>
        <mxCell id="6vEbpjVL_Du5tUhJGIu1-62" value="&lt;span style=&quot;color: rgba(0 , 0 , 0 , 0) ; font-family: monospace ; font-size: 0px ; background-color: rgb(248 , 249 , 250)&quot;&gt;%3CmxGraphModel%3E%3Croot%3E%3CmxCell%20id%3D%220%22%2F%3E%3CmxCell%20id%3D%221%22%20parent%3D%220%22%2F%3E%3CmxCell%20id%3D%222%22%20value%3D%22%22%20style%3D%22endArrow%3Dnone%3Bhtml%3D1%3B%22%20edge%3D%221%22%20parent%3D%221%22%3E%3CmxGeometry%20width%3D%2250%22%20height%3D%2250%22%20relative%3D%221%22%20as%3D%22geometry%22%3E%3CmxPoint%20x%3D%22610%22%20y%3D%22137%22%20as%3D%22sourcePoint%22%2F%3E%3CmxPoint%20x%3D%22673%22%20y%3D%22137%22%20as%3D%22targetPoint%22%2F%3E%3C%2FmxGeometry%3E%3C%2FmxCell%3E%3C%2Froot%3E%3C%2FmxGraphModel%3E&lt;/span&gt;" style="endArrow=none;html=1;" parent="1" edge="1">
          <mxGeometry width="50" height="50" relative="1" as="geometry">
            <mxPoint x="800" y="226" as="sourcePoint"/>
            <mxPoint x="840" y="226" as="targetPoint"/>
          </mxGeometry>
        </mxCell>
        <mxCell id="6vEbpjVL_Du5tUhJGIu1-63" value="&lt;span style=&quot;color: rgba(0 , 0 , 0 , 0) ; font-family: monospace ; font-size: 0px ; background-color: rgb(248 , 249 , 250)&quot;&gt;%3CmxGraphModel%3E%3Croot%3E%3CmxCell%20id%3D%220%22%2F%3E%3CmxCell%20id%3D%221%22%20parent%3D%220%22%2F%3E%3CmxCell%20id%3D%222%22%20value%3D%22%22%20style%3D%22endArrow%3Dnone%3Bhtml%3D1%3B%22%20edge%3D%221%22%20parent%3D%221%22%3E%3CmxGeometry%20width%3D%2250%22%20height%3D%2250%22%20relative%3D%221%22%20as%3D%22geometry%22%3E%3CmxPoint%20x%3D%22610%22%20y%3D%22137%22%20as%3D%22sourcePoint%22%2F%3E%3CmxPoint%20x%3D%22673%22%20y%3D%22137%22%20as%3D%22targetPoint%22%2F%3E%3C%2FmxGeometry%3E%3C%2FmxCell%3E%3C%2Froot%3E%3C%2FmxGraphModel%3E&lt;/span&gt;" style="endArrow=none;html=1;" parent="1" edge="1">
          <mxGeometry width="50" height="50" relative="1" as="geometry">
            <mxPoint x="800" y="420" as="sourcePoint"/>
            <mxPoint x="840" y="420" as="targetPoint"/>
            <Array as="points">
              <mxPoint x="830" y="420"/>
            </Array>
          </mxGeometry>
        </mxCell>
        <mxCell id="6vEbpjVL_Du5tUhJGIu1-64" value="" style="endArrow=none;html=1;" parent="1" edge="1">
          <mxGeometry width="50" height="50" relative="1" as="geometry">
            <mxPoint x="840" y="420" as="sourcePoint"/>
            <mxPoint x="839.5" y="226.5" as="targetPoint"/>
          </mxGeometry>
        </mxCell>
        <mxCell id="6vEbpjVL_Du5tUhJGIu1-66" value="涉及支付的场景&lt;br&gt;超额支付的拦截&lt;br&gt;调用支付网关" style="rounded=0;whiteSpace=wrap;html=1;fillColor=#fff2cc;strokeColor=#d6b656;gradientColor=#ffd966;" parent="1" vertex="1">
          <mxGeometry x="870" y="342" width="120" height="48" as="geometry"/>
        </mxCell>
      </root>
    </mxGraphModel>
  </diagram>
</mxfile>
